<svg id="Artwork_x5F_01" xmlns="http://www.w3.org/2000/svg" viewBox="0 0 327.8 56.7"><style>.st0{fill:#E4002B;} .st1{fill:#FFFFFF;} .st2{fill:#333F48;}</style><path class="st0" d="M0 28.2c-.1 15.7 12.5 28.4 28.2 28.5 15.7.1 28.4-12.5 28.5-28.2C56.8 12.8 44.2.1 28.5 0h-.2C12.8 0 .1 12.6 0 28.2"/><path class="st1" d="M46.9 24.5L30.1 7.7c-.4-.5-1.1-.8-1.7-.8-.7 0-1.3.3-1.7.8L9.8 24.5c-.7.6-1.1 1.5-1.1 2.5 0 2 1.6 3.6 3.6 3.6h2.3v12.8c0 1.3 1.1 2.4 2.4 2.4h22.7c1.3 0 2.4-1.1 2.4-2.4V30.6h2.3c2 0 3.6-1.6 3.6-3.6 0-1-.4-1.9-1.1-2.5m-9.3 1.8v15.1H19.1V26.3h-4.9l14.1-14.1 14.1 14.1h-4.8z"/><path class="st2" d="M75.4 22.1c-1.9 0-3.4.5-4.9 1.3v14.1c0 .4-.3.7-.7.7h-3.2c-.4 0-.7-.3-.7-.7V19.1c0-.4.3-.7.7-.7h3.1c.4 0 .7.3.7.7v.7c1.7-1.3 3.6-1.7 5-1.7.4 0 .7.3.7.7v2.5c0 .5-.3.8-.7.8zM93 29.9H81.6v.1c0 2 .8 4.5 4.2 4.5 2.6 0 5-.2 6.5-.4h.1c.4 0 .6.2.6.5V37c0 .6-.1.8-.7.9-2.3.4-3.7.6-6.8.6-3.5 0-8.5-1.9-8.5-8.8v-2.6c0-5.5 3.1-8.9 8.4-8.9 5.4 0 8.4 3.7 8.4 8.9v2c-.1.5-.3.8-.8.8zm-3.9-3.4c0-2.7-1.5-4.3-3.7-4.3s-3.8 1.5-3.8 4.3v.2h7.5v-.2zm20.8 11.7h-3c-.4 0-.7-.3-.7-.7v-.6c-1.6 1-3.3 1.6-5 1.6-2.9 0-6.1-1.1-6.1-5.9v-.1c0-4 2.5-6.1 8.6-6.1h2.2v-1.5c0-2.3-1-2.8-3.1-2.8-2.3 0-4.6.1-5.7.3h-.2c-.4 0-.6-.1-.6-.6v-2.2c0-.4.2-.6.7-.7 1.4-.3 3.4-.6 5.9-.6 5 0 7.7 2.2 7.7 6.7v12.7c0 .2-.3.5-.7.5zm-4-8.7h-2.2c-3.2 0-3.9 1-3.9 3v.1c0 1.7.8 2.2 2.5 2.2 1.3 0 2.6-.4 3.6-1v-4.3zm11.1 8.7h-3.3c-.4 0-.7-.3-.7-.7V12.2c0-.4.3-.7.7-.7h3.3c.4 0 .7.3.7.7v25.3c0 .4-.3.7-.7.7zm18.9-8.3h-11.5v.1c0 2 .8 4.5 4.2 4.5 2.6 0 5-.2 6.5-.4h.1c.3 0 .6.2.6.5V37c0 .6-.1.8-.7.9-2.3.4-3.7.6-6.8.6-3.5 0-8.5-1.9-8.5-8.8v-2.6c0-5.5 3.1-8.9 8.4-8.9 5.4 0 8.4 3.7 8.4 8.9v2c0 .5-.2.8-.7.8zm-4-3.4c0-2.7-1.5-4.3-3.7-4.3s-3.8 1.5-3.8 4.3v.2h7.4v-.2zm13.5 12c-1.4 0-4.3-.2-6.3-.7-.4-.1-.7-.4-.7-.8v-2.1c0-.3.2-.6.6-.6h.1c1.7.2 4.9.4 5.9.4 2.2 0 2.5-.7 2.5-1.7 0-.7-.4-1.1-1.5-1.8l-4.8-3c-1.7-1-3-2.8-3-4.8 0-3.5 2.2-5.3 6.7-5.3 2.8 0 4.5.3 6.3.7.4.1.6.4.6.8v2c0 .4-.2.7-.6.7h-.1c-1-.1-3.8-.4-5.8-.4-1.7 0-2.4.4-2.4 1.5 0 .6.5.9 1.4 1.4l4.6 2.8c3 1.8 3.4 3.5 3.4 5.3 0 3.2-2.3 5.6-6.9 5.6zm19.5-.3c-.8.1-1.6.2-2.4.2-4 0-5.6-.9-5.6-5.6v-11l-3.3-.5c-.4-.1-.7-.3-.7-.7V19c0-.4.3-.7.7-.7h3.3v-4.7c0-.4.3-.6.7-.7l3.3-.6h.1c.3 0 .6.2.6.5v5.4h3.2c.4 0 .7.3.7.7V21c0 .4-.3.7-.7.7h-3.2v11c0 1.8.1 2 1.4 2h1.9c.5 0 .7.2.7.5v2.2c0 .6-.2.8-.7.8zm16.6 0h-3c-.4 0-.7-.3-.7-.7v-.6c-1.6 1-3.3 1.6-5 1.6-2.9 0-6.1-1.1-6.1-5.9v-.1c0-4 2.5-6.1 8.6-6.1h2.2v-1.5c0-2.3-1-2.8-3.1-2.8-2.2 0-4.6.1-5.7.3h-.2c-.4 0-.6-.1-.6-.6v-2.2c0-.4.2-.6.7-.7 1.4-.3 3.4-.6 5.9-.6 5 0 7.7 2.2 7.7 6.7v12.7c0 .2-.3.5-.7.5zm-3.9-8.7h-2.2c-3.2 0-3.9 1-3.9 3v.1c0 1.7.8 2.2 2.5 2.2 1.3 0 2.6-.4 3.6-1v-4.3zm17.2 8.7c-.8.1-1.6.2-2.4.2-4 0-5.6-.9-5.6-5.6v-11l-3.3-.5c-.4-.1-.7-.3-.7-.7V19c0-.4.3-.7.7-.7h3.3v-4.7c0-.4.3-.6.7-.7l3.3-.6h.1c.3 0 .6.2.6.5v5.4h3.2c.4 0 .7.3.7.7V21c0 .4-.3.7-.7.7h-3.2v11c0 1.8.1 2 1.4 2h1.9c.5 0 .8.2.8.5v2.2c-.2.6-.4.8-.8.8zm18-8.3h-11.5v.1c0 2 .8 4.5 4.2 4.5 2.6 0 5-.2 6.5-.4h.1c.3 0 .6.2.6.5V37c0 .6-.1.8-.7.9-2.3.4-3.7.6-6.8.6-3.5 0-8.5-1.9-8.5-8.8v-2.6c0-5.5 3.1-8.9 8.4-8.9 5.4 0 8.4 3.7 8.4 8.9v2c0 .5-.2.8-.7.8zm-4-3.4c0-2.7-1.5-4.3-3.7-4.3s-3.8 1.5-3.8 4.3v.2h7.4v-.2zm9.9 11.7h-3.1c-.4 0-.7-.3-.7-.7v-4c0-.4.3-.7.7-.7h3.1c.4 0 .7.3.7.7v4c0 .4-.3.7-.7.7zm14.5-.2c-.8.2-2.4.5-4.5.5-4.6 0-8-2.8-8-8.5v-3.3c0-5.7 3.4-8.5 8-8.5 2.1 0 3.7.2 4.5.5.6.1.7.4.7.9v2.3c0 .3-.3.5-.6.5h-.1c-1.4-.2-2.2-.2-4.5-.2-1.7 0-3.4.9-3.4 4.6v3.3c0 3.6 1.7 4.6 3.4 4.6 2.3 0 3.1-.1 4.5-.2h.1c.4 0 .6.2.6.5v2.3c0 .4-.1.6-.7.7zm10.8.5c-5.5 0-8.4-3.7-8.4-8.8v-2.8c0-5 2.9-8.8 8.4-8.8s8.4 3.7 8.4 8.8v2.8c0 5.1-2.9 8.8-8.4 8.8zm3.7-11.6c0-2.9-1.3-4.7-3.8-4.7s-3.8 1.9-3.8 4.7v2.8c0 2.9 1.3 4.7 3.8 4.7s3.8-1.9 3.8-4.7v-2.8zm31.2 11.3h-3.2c-.4 0-.7-.3-.7-.7v-12c0-2.7-.6-3.4-2.5-3.4-.7 0-2 .2-3.3.9.1.8.1 1.7.1 2.5v11.9c0 .4-.3.7-.7.7h-3.2c-.4 0-.7-.3-.7-.7V25.5c0-2.7-.5-3.4-2.4-3.4-.7 0-1.8.4-3.2 1.2v14.2c0 .4-.3.7-.7.7h-3.2c-.4 0-.7-.3-.7-.7V19.1c0-.4.3-.7.7-.7h3.1c.4 0 .7.3.7.7v.7c1.5-.9 3-1.7 5-1.7s3.3.6 4.1 1.6c1.8-1 3.4-1.6 5.8-1.6 4.8 0 5.8 3.3 5.8 7.4v11.9c-.1.5-.4.8-.8.8zm6.6 0h-3.1c-.4 0-.7-.3-.7-.7v-4c0-.4.3-.7.7-.7h3.1c.4 0 .7.3.7.7v4c0 .4-.4.7-.7.7zm17.1 0h-3c-.4 0-.7-.3-.7-.7v-.6c-1.6 1-3.3 1.6-5 1.6-2.9 0-6.1-1.1-6.1-5.9v-.1c0-4 2.5-6.1 8.6-6.1h2.2v-1.5c0-2.3-1-2.8-3.1-2.8-2.3 0-4.6.1-5.7.3h-.2c-.4 0-.6-.1-.6-.6v-2.2c0-.4.2-.6.7-.7 1.4-.3 3.4-.6 5.9-.6 5 0 7.7 2.2 7.7 6.7v12.7c0 .2-.4.5-.7.5zm-4-8.7h-2.2c-3.2 0-3.9 1-3.9 3v.1c0 1.7.8 2.2 2.5 2.2 1.3 0 2.6-.4 3.6-1v-4.3zM321.1 38.2h-3.2c-.4 0-.7-.3-.7-.7v-.8c-1.8 1.2-3.3 1.8-5.5 1.8-1.8 0-3.3-.5-4.3-1.5-1.3-1.3-1.8-3.5-1.8-6.4V19.1c0-.4.3-.7.7-.7h3.2c.4 0 .7.4.7.7v11.5c0 1.8.1 2.8.8 3.4.5.4 1.1.6 2.2.6 1.3 0 3-.9 4-1.4V19.1c0-.4.3-.7.7-.7h3.2c.4 0 .7.4.7.7v18.4c0 .4-.3.7-.7.7zM325.1 17.2c-1.3 0-2.2-1-2.2-2.2 0-1.2.9-2.2 2.2-2.2 1.3 0 2.2 1 2.2 2.2 0 1.2-.9 2.2-2.2 2.2zm0-4.1c-1.1 0-1.8.8-1.8 1.9 0 1.1.7 1.8 1.8 1.8s1.8-.8 1.8-1.8c0-1.1-.7-1.9-1.8-1.9zm.5 3l-.4-.9h-.5v.9h-.4v-2.3h.9c.4 0 .8.3.8.7 0 .3-.1.5-.4.7l.4.9h-.4zm-.4-1.9h-.5v.7h.5c.2 0 .4-.1.4-.4 0-.2-.2-.3-.4-.3z"/></svg>