<?xml version="1.0" encoding="utf-8"?>
<!-- Generator: Adobe Illustrator 19.1.0, SVG Export Plug-In . SVG Version: 6.00 Build 0)  -->
<svg version="1.1" id="Layer_1" xmlns="http://www.w3.org/2000/svg" xmlns:xlink="http://www.w3.org/1999/xlink" x="0px" y="0px"
	 width="482.7px" height="68.8px" viewBox="0 0 482.7 68.8" style="enable-background:new 0 0 482.7 68.8;" xml:space="preserve">
<style type="text/css">
	.st0{fill:#333F48;}
	.st1{fill:#E4002B;}
	.st2{fill:#FFFFFF;}
</style>
<g>
	<g>
		<path class="st0" d="M86.3,17.2h12.6c6.3,0,10.8,4.2,10.8,10.8s-4.5,10.9-10.8,10.9h-7.8v12.7h-4.8V17.2z M98.1,34.7
			c4.2,0,6.7-2.6,6.7-6.7c0-4.2-2.5-6.6-6.6-6.6h-7v13.3H98.1z"/>
		<path class="st0" d="M115.2,27h4.6v4.3c0,1-0.1,1.9-0.1,1.9h0.1c1.1-3.6,4-6.4,7.8-6.4c0.6,0,1.2,0.1,1.2,0.1v4.7
			c0,0-0.6-0.1-1.4-0.1c-3,0-5.8,2.1-6.9,5.8c-0.4,1.4-0.6,2.9-0.6,4.4v10.1h-4.7V27z"/>
		<path class="st0" d="M145.2,26.4c7.4,0,13.3,5.4,13.3,12.9c0,7.5-6,13-13.3,13c-7.4,0-13.3-5.5-13.3-13
			C131.9,31.8,137.9,26.4,145.2,26.4z M145.2,48.2c4.7,0,8.5-3.7,8.5-8.9c0-5.1-3.8-8.8-8.5-8.8c-4.6,0-8.5,3.7-8.5,8.8
			C136.8,44.5,140.6,48.2,145.2,48.2z"/>
		<path class="st0" d="M164.4,27h4.3v2.1c0,1-0.1,1.8-0.1,1.8h0.1c0,0,2.1-4.5,8.3-4.5c6.6,0,10.8,5.3,10.8,12.9
			c0,7.9-4.7,12.9-11.2,12.9c-5.4,0-7.6-4.1-7.6-4.1h-0.1c0,0,0.1,0.9,0.1,2.1v11.1h-4.7V27z M176,48.2c3.9,0,7.1-3.2,7.1-8.8
			c0-5.4-2.9-8.8-7-8.8c-3.7,0-7.1,2.6-7.1,8.9C169,43.8,171.5,48.2,176,48.2z"/>
		<path class="st0" d="M204.6,26.4c7,0,10.7,5.2,10.7,11.6c0,0.6-0.1,2.1-0.1,2.1h-18c0.2,5.4,4.1,8.2,8.5,8.2
			c4.2,0,7.3-2.9,7.3-2.9l2,3.5c0,0-3.7,3.5-9.6,3.5c-7.8,0-13.1-5.6-13.1-12.9C192.3,31.5,197.6,26.4,204.6,26.4z M210.5,36.5
			c-0.1-4.2-2.8-6.3-6-6.3c-3.6,0-6.5,2.2-7.2,6.3H210.5z"/>
		<path class="st0" d="M221.3,27h4.6v4.3c0,1-0.1,1.9-0.1,1.9h0.1c1.1-3.6,4-6.4,7.8-6.4c0.6,0,1.2,0.1,1.2,0.1v4.7
			c0,0-0.6-0.1-1.4-0.1c-3,0-5.8,2.1-6.9,5.8c-0.4,1.4-0.6,2.9-0.6,4.4v10.1h-4.7V27z"/>
		<path class="st0" d="M240.9,31.1h-3.2v-3.8h3.4v-7.1h4.6v7.1h6v3.8h-6v11c0,4.9,3.5,5.6,5.3,5.6c0.7,0,1.1-0.1,1.1-0.1v4.2
			c0,0-0.7,0.1-1.7,0.1c-3.2,0-9.5-1-9.5-9.2V31.1z"/>
		<path class="st0" d="M255.8,56.8c0,0,1.4,1,2.9,1c1.9,0,3.5-1.4,4.4-3.6l1.2-2.8L254,27h5.3l6.2,16.2c0.5,1.3,0.9,3,0.9,3h0.1
			c0,0,0.4-1.7,0.8-2.9l6-16.2h5.1l-11.6,29.2c-1.5,3.8-4.5,5.8-8,5.8c-2.8,0-4.8-1.5-4.8-1.5L255.8,56.8z"/>
		<path class="st0" d="M293.6,17.2h12.6c6.3,0,10.8,4.2,10.8,10.8s-4.5,10.9-10.8,10.9h-7.8v12.7h-4.8V17.2z M305.4,34.7
			c4.1,0,6.7-2.6,6.7-6.7c0-4.2-2.5-6.6-6.6-6.6h-7v13.3H305.4z"/>
		<path class="st0" d="M322.2,17.2h4.7v26.9c0,3,1.2,3.5,2.6,3.5c0.4,0,0.8,0,0.8,0v4.2c0,0-0.7,0.1-1.6,0.1c-2.7,0-6.6-0.7-6.6-6.9
			V17.2z"/>
		<path class="st0" d="M348.6,36.3h1.1v-0.4c0-4.1-2.3-5.4-5.4-5.4c-3.8,0-6.9,2.4-6.9,2.4l-2-3.5c0,0,3.6-2.9,9.2-2.9
			c6.2,0,9.8,3.4,9.8,9.7v15.6H350v-2.3c0-1.1,0.1-2,0.1-2H350c0,0-2,4.9-7.9,4.9c-4.3,0-8.4-2.6-8.4-7.5
			C333.7,36.6,344.4,36.3,348.6,36.3z M343.1,48.5c4,0,6.6-4.2,6.6-7.9v-0.8h-1.2c-3.6,0-10,0.2-10,4.7
			C338.4,46.5,340,48.5,343.1,48.5z"/>
		<path class="st0" d="M362.6,31.1h-3.2v-3.8h3.4v-7.1h4.6v7.1h6v3.8h-6v11c0,4.9,3.5,5.6,5.3,5.6c0.7,0,1.1-0.1,1.1-0.1v4.2
			c0,0-0.7,0.1-1.7,0.1c-3.2,0-9.5-1-9.5-9.2V31.1z"/>
		<path class="st0" d="M380.6,31.1h-3.1v-3.8h3.1v-1.2c0-8.2,6.2-9.2,9.3-9.2c1.1,0,1.8,0.1,1.8,0.1v4.1c0,0-0.5-0.1-1.2-0.1
			c-1.8,0-5.2,0.6-5.2,5.2v1.1h5.9v3.8h-5.9v20.6h-4.7V31.1z"/>
		<path class="st0" d="M407.4,26.4c7.4,0,13.3,5.4,13.3,12.9c0,7.5-6,13-13.3,13c-7.4,0-13.3-5.5-13.3-13
			C394.1,31.8,400.1,26.4,407.4,26.4z M407.4,48.2c4.7,0,8.5-3.7,8.5-8.9c0-5.1-3.8-8.8-8.5-8.8c-4.6,0-8.5,3.7-8.5,8.8
			C398.9,44.5,402.8,48.2,407.4,48.2z"/>
		<path class="st0" d="M426.6,27h4.6v4.3c0,1-0.1,1.9-0.1,1.9h0.1c1.1-3.6,4-6.4,7.8-6.4c0.6,0,1.2,0.1,1.2,0.1v4.7
			c0,0-0.6-0.1-1.4-0.1c-3,0-5.8,2.1-6.9,5.8c-0.4,1.4-0.6,2.9-0.6,4.4v10.1h-4.7V27z"/>
		<path class="st0" d="M445.2,27h4.6v3.3c0,1-0.1,1.8-0.1,1.8h0.1c1.2-2.9,4.6-5.7,8.5-5.7c4.2,0,6.6,1.9,7.4,5.6h0.1
			c1.4-3,4.8-5.6,8.8-5.6c5.6,0,8.2,3.2,8.2,9.5v15.8H478V36.9c0-3.5-0.7-6.2-4.4-6.2c-3.5,0-6.1,2.9-6.9,6.3
			c-0.2,1-0.3,2.1-0.3,3.4v11.3h-4.7V36.9c0-3.2-0.5-6.2-4.3-6.2c-3.6,0-6.2,3-7.1,6.5c-0.2,1-0.3,2.1-0.3,3.2v11.3h-4.7V27z"/>
	</g>
	<path class="st1" d="M0,34.2c-0.1,19,15.2,34.5,34.2,34.6c19,0.1,34.5-15.2,34.6-34.2C68.9,15.6,53.5,0.1,34.6,0
		c-0.1,0-0.1,0-0.2,0C15.5,0,0.1,15.3,0,34.2"/>
	<path class="st2" d="M56.9,29.7L56.9,29.7L36.5,9.3c-0.5-0.6-1.3-0.9-2.1-0.9h0c-0.8,0-1.6,0.4-2.1,0.9L11.8,29.7v0
		c-0.8,0.8-1.3,1.9-1.3,3.1c0,2.4,2,4.4,4.4,4.4l2.8,0c0,0,0,15.4,0,15.5c0,1.6,1.3,2.9,2.9,2.9h27.5c1.6,0,2.9-1.3,2.9-2.9
		c0,0,0-15.5,0-15.5l2.8,0c2.4,0,4.4-2,4.4-4.4C58.2,31.5,57.7,30.5,56.9,29.7 M45.6,31.9v18.3H23.2V31.9l-5.9,0l17.1-17l17.1,17
		L45.6,31.9z"/>
</g>
</svg>
