<svg id="Artwork_x5F_01" xmlns="http://www.w3.org/2000/svg" viewBox="0 0 56.7 56.7"><style>.st0{fill:#E4002B;} .st1{fill:#FFFFFF;} .st2{fill:#333F48;}</style><path class="st0" d="M0 28.2c-.1 15.7 12.5 28.4 28.2 28.5 15.7.1 28.4-12.5 28.5-28.2C56.8 12.8 44.2.1 28.5 0h-.2C12.8 0 .1 12.6 0 28.2"/><path class="st1" d="M46.9 24.5L30.1 7.7c-.4-.5-1.1-.8-1.7-.8-.7 0-1.3.3-1.7.8L9.8 24.5c-.7.6-1.1 1.5-1.1 2.5 0 2 1.6 3.6 3.6 3.6h2.3v12.8c0 1.3 1.1 2.4 2.4 2.4h22.7c1.3 0 2.4-1.1 2.4-2.4V30.6h2.3c2 0 3.6-1.6 3.6-3.6 0-1-.4-1.9-1.1-2.5m-9.3 1.8v15.1H19.1V26.3h-4.9l14.1-14.1 14.1 14.1h-4.8z"/></svg>